<svg width="32" height="32" viewBox="0 0 32 32" fill="none" xmlns="http://www.w3.org/2000/svg">
  <defs>
    <linearGradient id="racketGradient" x1="0%" y1="0%" x2="100%" y2="100%">
      <stop offset="0%" style="stop-color:#3B82F6;stop-opacity:1" />
      <stop offset="100%" style="stop-color:#1D4ED8;stop-opacity:1" />
    </linearGradient>
    <linearGradient id="shuttlecockGradient" x1="0%" y1="0%" x2="100%" y2="100%">
      <stop offset="0%" style="stop-color:#F59E0B;stop-opacity:1" />
      <stop offset="100%" style="stop-color:#D97706;stop-opacity:1" />
    </linearGradient>
  </defs>
  
  <!-- Background circle -->
  <circle cx="16" cy="16" r="15" fill="#1E293B" stroke="#334155" stroke-width="2"/>
  
  <!-- Badminton racket handle -->
  <rect x="13" y="20" width="6" height="8" rx="3" fill="url(#racketGradient)"/>
  
  <!-- Racket head (oval) -->
  <ellipse cx="16" cy="12" rx="6" ry="8" fill="none" stroke="url(#racketGradient)" stroke-width="2"/>
  
  <!-- Racket strings (horizontal) -->
  <line x1="11" y1="8" x2="21" y2="8" stroke="#60A5FA" stroke-width="0.5" opacity="0.7"/>
  <line x1="11" y1="10" x2="21" y2="10" stroke="#60A5FA" stroke-width="0.5" opacity="0.7"/>
  <line x1="11" y1="12" x2="21" y2="12" stroke="#60A5FA" stroke-width="0.5" opacity="0.7"/>
  <line x1="11" y1="14" x2="21" y2="14" stroke="#60A5FA" stroke-width="0.5" opacity="0.7"/>
  <line x1="11" y1="16" x2="21" y2="16" stroke="#60A5FA" stroke-width="0.5" opacity="0.7"/>
  
  <!-- Racket strings (vertical) -->
  <line x1="12" y1="6" x2="12" y2="18" stroke="#60A5FA" stroke-width="0.5" opacity="0.7"/>
  <line x1="14" y1="5" x2="14" y2="19" stroke="#60A5FA" stroke-width="0.5" opacity="0.7"/>
  <line x1="16" y1="4" x2="16" y2="20" stroke="#60A5FA" stroke-width="0.5" opacity="0.7"/>
  <line x1="18" y1="5" x2="18" y2="19" stroke="#60A5FA" stroke-width="0.5" opacity="0.7"/>
  <line x1="20" y1="6" x2="20" y2="18" stroke="#60A5FA" stroke-width="0.5" opacity="0.7"/>
  
  <!-- Shuttlecock -->
  <g transform="translate(22, 6)">
    <!-- Shuttlecock head -->
    <circle cx="0" cy="0" r="2" fill="url(#shuttlecockGradient)"/>
    <!-- Feathers -->
    <path d="M-1,-2 L-2,-6 L0,-5 L2,-6 L1,-2" fill="#F3F4F6" stroke="#D1D5DB" stroke-width="0.5"/>
    <path d="M-0.5,-2 L-1,-5.5 L0.5,-2 L1,-5.5" stroke="#D1D5DB" stroke-width="0.3"/>
  </g>
</svg>